Coordinates
version=1
nRows=12
nColumns=24
inDegrees=yes

Units are S.I. units (second, meters, Newtons, ...)
Angles are in degrees.

endheader
time	pelvis_tilt	pelvis_list	pelvis_rotation	pelvis_tx	pelvis_ty	pelvis_tz	hip_flexion_r	hip_adduction_r	hip_rotation_r	knee_angle_r	ankle_angle_r	subtalar_angle_r	mtp_angle_r	hip_flexion_l	hip_adduction_l	hip_rotation_l	knee_angle_l	ankle_angle_l	subtalar_angle_l	mtp_angle_l	lumbar_extension	lumbar_bending	lumbar_rotation
      1.10800000	     -0.41943016	      5.10434543	     -2.21700461	      0.06491669	      1.05860934	      0.32851431	     21.11166664	     -4.21562254	      0.98162356	    -68.85051070	     -0.70884288	    -15.05846878	      7.38813513	     11.94432342	      8.50017129	     -2.70250031	    -12.20527939	      1.52289909	     -2.62065582	      5.23500680	      1.56606414	     -1.78339456	      2.06115594
      1.11216667	     -0.41697374	      5.11109934	     -2.25551564	      0.07002181	      1.05923266	      0.32843402	     21.67387035	     -4.14982736	      1.26490757	    -68.50754328	     -0.29774849	    -15.19891967	      7.35384378	     11.57533805	      8.54477325	     -2.62194742	    -12.08196091	      1.66978295	     -2.63383006	      5.23421937	      1.53413308	     -1.72553591	      2.01733145
      1.11633333	     -0.43246699	      5.08881732	     -2.29272994	      0.07514553	      1.05983964	      0.32843726	     22.22407649	     -4.03804155	      1.54909435	    -68.07550843	      0.20835141	    -15.34767044	      7.31426044	     11.22694724	      8.54840165	     -2.58573993	    -11.97593032	      1.85951677	     -2.69024911	      5.23188700	      1.52829507	     -1.69334392	      1.97548549
      1.12050000	     -0.44264174	      5.06555218	     -2.31647929	      0.08026853	      1.06044670	      0.32843325	     22.74436814	     -3.92888055	      1.81702806	    -67.56107338	      0.63026830	    -15.45339694	      7.27728310	     10.86809190	      8.55484181	     -2.51519773	    -11.86184469	      2.01863930	     -2.73753329	      5.22858497	      1.51258963	     -1.66505840	      1.93675876
      1.12466667	     -0.45861213	      5.03673064	     -2.33881451	      0.08541009	      1.06103908	      0.32843980	     23.24476383	     -3.81016878	      2.08294238	    -66.96634131	      1.06784077	    -15.55448712	      7.23325240	     10.51346248	      8.55487635	     -2.44718366	    -11.74676823	      2.19119229	     -2.80782821	      5.22305450	      1.50666045	     -1.63266357	      1.89423763
      1.12883333	     -0.49013465	      4.98377956	     -2.33182151	      0.09050091	      1.06159526	      0.32848088	     23.73386615	     -3.66610891	      2.32321886	    -66.27622597	      1.26878802	    -15.61030938	      7.21642400	     10.18089983	      8.52532248	     -2.34142039	    -11.64029072	      2.26741443	     -2.83472020	      5.22087901	      1.43567210	     -1.62156492	      1.86938920
      1.13300000	     -0.51295178	      4.94557041	     -2.35599541	      0.09567070	      1.06215945	      0.32852480	     24.19185713	     -3.53228610	      2.58784071	    -65.52039532	      1.54468011	    -15.71037459	      7.19747892	      9.82073930	      8.51333391	     -2.22430024	    -11.50334541	      2.38797153	     -2.88835415	      5.21846647	      1.41512378	     -1.57866494	      1.83720137
      1.13716667	     -0.49372954	      4.93778261	     -2.40172038	      0.10089014	      1.06275889	      0.32842941	     24.58662043	     -3.44737579	      2.84058703	    -64.71426280	      2.02783320	    -15.91711871	      7.15371723	      9.40351745	      8.55657597	     -2.12564158	    -11.33289205	      2.63180460	     -3.04880124	      5.21069349	      1.48989199	     -1.48532028	      1.78230809
      1.14133333	     -0.54520263	      4.89690607	     -2.39276307	      0.10597949	      1.06321097	      0.32852184	     25.03182113	     -3.31052109	      3.07609574	    -63.82297137	      2.20812784	    -15.99768726	      7.13422311	      9.08850201	      8.53753332	     -2.00198927	    -11.22226792	      2.71302003	     -3.10614583	      5.20673938	      1.41059812	     -1.49081243	      1.75686983
      1.14550000	     -0.52256094	      4.85408519	     -2.39351950	      0.11120431	      1.06379548	      0.32844215	     25.35675063	     -3.19911831	      3.26672388	    -62.85596411	      2.58351002	    -16.30392747	      7.05358540	      8.66318466	      8.54424382	     -1.83672166	    -11.05499952	      2.95626873	     -3.38535743	      5.18627516	      1.41227574	     -1.39074214	      1.67328715
      1.14966667	     -0.50285078	      4.81584756	     -2.38627523	      0.11637731	      1.06433271	      0.32839946	     25.66521213	     -3.09133695	      3.45737082	    -61.81519752	      2.72689795	    -16.60536026	      6.93994166	      8.24368558	      8.55131056	     -1.62822041	    -10.88780472	      3.07555065	     -3.63599977	      5.15366486	      1.36461155	     -1.33471056	      1.57825380
      1.15383333	     -0.51827676	      4.80632793	     -2.41715513	      0.12160250	      1.06477945	      0.32843944	     25.99652995	     -2.99438841	      3.69307792	    -60.72176135	      2.83449435	    -16.77974586	      6.89273146	      7.85266920	      8.58177594	     -1.44572246	    -10.69764283	      3.15529230	     -3.72340353	      5.14078776	      1.40422612	     -1.32998372	      1.54402295
